<svg width="40" height="44" viewBox="0 0 40 44" fill="none" xmlns="http://www.w3.org/2000/svg">
<path d="M11.1719 27.5H28.776L30.651 8.02083C30.8941 5.46875 30.5382 3.49392 29.5833 2.09635C28.6285 0.698785 27.1007 0 25 0H15C12.8993 0 11.3628 0.698785 10.3906 2.09635C9.4184 3.49392 9.05382 5.46875 9.29688 8.02083L11.1719 27.5ZM26.6667 35H13.3333V41.5625C13.3333 42.0486 13.1727 42.4653 12.8516 42.8125C12.5304 43.1597 12.1354 43.3333 11.6667 43.3333H8.33333C7.86458 43.3333 7.46962 43.1771 7.14844 42.8646C6.82726 42.5521 6.66667 42.1528 6.66667 41.6667L6.64062 34.6094C6.03299 34.349 5.49913 34.0148 5.03906 33.6068C4.57899 33.1988 4.20573 32.6997 3.91927 32.1094C3.63281 31.5191 3.39844 30.9332 3.21615 30.3516C3.03385 29.77 2.89931 29.0495 2.8125 28.1901C2.72569 27.3307 2.66927 26.5538 2.64323 25.8594C2.61719 25.1649 2.60417 24.2969 2.60417 23.2552C1.84028 23.099 1.21528 22.73 0.729167 22.1484C0.243056 21.5668 0 20.8507 0 20C0 19.0451 0.334201 18.2509 1.0026 17.6172C1.67101 16.9835 2.70833 16.6667 4.11458 16.6667C4.72222 16.6667 5.23872 16.7535 5.66406 16.9271C6.08941 17.1007 6.44097 17.3741 6.71875 17.7474C6.99653 18.1207 7.20486 18.4505 7.34375 18.737C7.48264 19.0234 7.63889 19.4271 7.8125 19.9479L8.82812 28.5677C8.96701 29.2795 9.1059 29.6875 9.24479 29.7917C9.4184 29.9306 9.80035 30 10.3906 30H29.5573C30.1997 30 30.5859 29.9306 30.7161 29.7917C30.8464 29.6528 30.9809 29.2448 31.1198 28.5677L32.1354 19.9479C32.309 19.4271 32.4653 19.0234 32.6042 18.737C32.7431 18.4505 32.9514 18.1207 33.2292 17.7474C33.5069 17.3741 33.8585 17.1007 34.2839 16.9271C34.7092 16.7535 35.2257 16.6667 35.8333 16.6667C37.2396 16.6667 38.2856 16.9835 38.9714 17.6172C39.6571 18.2509 40 19.0451 40 20C40 20.8333 39.7526 21.5451 39.2578 22.1354C38.763 22.7257 38.125 23.099 37.3438 23.2552C37.3438 24.3142 37.3307 25.1866 37.3047 25.8724C37.2786 26.5582 37.2222 27.3394 37.1354 28.2161C37.0486 29.0929 36.9184 29.8264 36.7448 30.4167C36.5712 31.0069 36.3411 31.6016 36.0547 32.2005C35.7682 32.7995 35.395 33.303 34.9349 33.7109C34.4748 34.1189 33.941 34.4531 33.3333 34.7135V41.6667C33.3333 42.1528 33.1727 42.5521 32.8516 42.8646C32.5304 43.1771 32.1354 43.3333 31.6667 43.3333H28.3333C27.8646 43.3333 27.4696 43.1771 27.1484 42.8646C26.8273 42.5521 26.6667 42.1528 26.6667 41.6667V35Z" fill="#F6B220"/>
</svg>
