<svg width="31" height="30" viewBox="0 0 31 30" fill="none" xmlns="http://www.w3.org/2000/svg">
<path d="M9.78248 0.59628C6.42012 1.49722 3.55338 3.69695 1.81289 6.71156C0.0724099 9.72616 -0.399241 13.3087 0.5017 16.6711L2.53197 24.2481L1.43839 26.1423C1.22216 26.5169 1.12186 26.9473 1.15018 27.379C1.17849 27.8106 1.33416 28.2242 1.59748 28.5674C1.86081 28.9106 2.21998 29.168 2.62958 29.3071C3.03919 29.4462 3.48084 29.4607 3.8987 29.3488L29.2543 22.5548C29.6721 22.4428 30.0473 22.2094 30.3325 21.8841C30.6176 21.5588 30.8 21.1563 30.8564 20.7274C30.9129 20.2986 30.8409 19.8626 30.6496 19.4746C30.4583 19.0866 30.1563 18.7641 29.7817 18.5477L27.8875 17.4541L25.8573 9.87706C24.9563 6.5147 22.7566 3.64796 19.742 1.90747C16.7274 0.16699 13.1448 -0.30466 9.78248 0.59628Z" fill="#FF5401"/>
</svg>
